<svg width="132" height="38" viewBox="0 0 132 38" fill="none" xmlns="http://www.w3.org/2000/svg">
<path d="M127.111 38H4.88889C2.20122 38 0 35.8613 0 33.25V4.75C0 2.13869 2.20122 4.76837e-07 4.88889 4.76837e-07H127.111C129.799 4.76837e-07 132 2.13869 132 4.75V33.25C132 35.8613 129.799 38 127.111 38Z" fill="black"/>
<path d="M127.111 0.761188C129.375 0.761188 131.217 2.55075 131.217 4.75V33.25C131.217 35.4492 129.375 37.2388 127.111 37.2388H4.88889C2.62533 37.2388 0.783444 35.4492 0.783444 33.25V4.75C0.783444 2.55075 2.62533 0.761188 4.88889 0.761188H127.111ZM127.111 4.76837e-07H4.88889C2.20122 4.76837e-07 0 2.13869 0 4.75V33.25C0 35.8613 2.20122 38 4.88889 38H127.111C129.799 38 132 35.8613 132 33.25V4.75C132 2.13869 129.799 4.76837e-07 127.111 4.76837e-07Z" fill="#A6A6A6"/>
<path d="M10.203 7.16197C9.91573 7.4541 9.74951 7.90891 9.74951 8.49791V29.5072C9.74951 30.0962 9.91573 30.551 10.203 30.8431L10.2738 30.9072L22.3909 19.1391V18.8612L10.2738 7.0931L10.203 7.16197Z" fill="url(#paint0_linear_770_875)"/>
<path d="M26.4257 23.0635L22.3911 19.1388V18.8609L26.4306 14.9362L26.521 14.9873L31.3048 17.6319C32.67 18.3824 32.67 19.6174 31.3048 20.3726L26.521 23.0124L26.4257 23.0635Z" fill="url(#paint1_linear_770_875)"/>
<path d="M26.521 23.0128L22.3911 19.0003L10.2031 30.8432C10.6566 31.3063 11.396 31.3622 12.2369 30.899L26.521 23.0128Z" fill="url(#paint2_linear_770_875)"/>
<path d="M26.521 14.9874L12.2369 7.10125C11.396 6.64288 10.6566 6.69869 10.2031 7.16181L22.3911 19L26.521 14.9874Z" fill="url(#paint3_linear_770_875)"/>
<path d="M46.3638 9.73227C46.3638 10.5255 46.1194 11.1608 45.6378 11.6346C45.0841 12.1963 44.363 12.479 43.4794 12.479C42.6348 12.479 41.9137 12.1916 41.3221 11.6251C40.7294 11.0504 40.4336 10.345 40.4336 9.50071C40.4336 8.6564 40.7294 7.95102 41.3221 7.38102C41.9137 6.80984 42.6348 6.52246 43.4794 6.52246C43.8998 6.52246 44.3007 6.60677 44.6833 6.76352C45.0646 6.92146 45.375 7.13521 45.5999 7.39884L45.089 7.89996C44.6967 7.4499 44.1626 7.22784 43.4794 7.22784C42.8634 7.22784 42.3293 7.43684 41.8758 7.8584C41.4273 8.28115 41.2024 8.82859 41.2024 9.50071C41.2024 10.1728 41.4273 10.725 41.8758 11.1478C42.3293 11.5646 42.8634 11.7783 43.4794 11.7783C44.1333 11.7783 44.6833 11.5646 45.1172 11.143C45.4031 10.864 45.5657 10.4792 45.6085 9.98758H43.4794V9.30121H46.3198C46.354 9.44965 46.3638 9.59333 46.3638 9.73227Z" fill="white" stroke="white" stroke-width="0.16" stroke-miterlimit="10"/>
<path d="M50.8702 7.35178H48.2021V9.15678H50.6074V9.84315H48.2021V11.6482H50.8702V12.3476H47.4468V6.65234H50.8702V7.35178Z" fill="white" stroke="white" stroke-width="0.16" stroke-miterlimit="10"/>
<path d="M54.0506 12.3476H53.2952V7.35178H51.6587V6.65234H55.6884V7.35178H54.0506V12.3476Z" fill="white" stroke="white" stroke-width="0.16" stroke-miterlimit="10"/>
<path d="M58.6045 12.3476V6.65234H59.3586V12.3476H58.6045Z" fill="white" stroke="white" stroke-width="0.16" stroke-miterlimit="10"/>
<path d="M62.7014 12.3476H61.9522V7.35178H60.3096V6.65234H64.3441V7.35178H62.7014V12.3476Z" fill="white" stroke="white" stroke-width="0.16" stroke-miterlimit="10"/>
<path d="M71.973 11.6156C71.3949 12.1916 70.6786 12.479 69.8243 12.479C68.9651 12.479 68.2489 12.1916 67.6708 11.6156C67.0939 11.0409 66.8066 10.3355 66.8066 9.50071C66.8066 8.6659 67.0939 7.96052 67.6708 7.38577C68.2489 6.80984 68.9651 6.52246 69.8243 6.52246C70.6738 6.52246 71.39 6.80984 71.9681 7.39052C72.5499 7.97002 72.8371 8.67065 72.8371 9.50071C72.8371 10.3355 72.5499 11.0409 71.973 11.6156ZM68.2293 11.1383C68.6644 11.5646 69.1936 11.7783 69.8243 11.7783C70.4501 11.7783 70.9842 11.5646 71.4144 11.1383C71.8483 10.712 72.0683 10.1645 72.0683 9.50071C72.0683 8.8369 71.8483 8.28946 71.4144 7.86315C70.9842 7.43684 70.4501 7.22309 69.8243 7.22309C69.1936 7.22309 68.6644 7.43684 68.2293 7.86315C67.7954 8.28946 67.5754 8.8369 67.5754 9.50071C67.5754 10.1645 67.7954 10.712 68.2293 11.1383Z" fill="white" stroke="white" stroke-width="0.16" stroke-miterlimit="10"/>
<path d="M73.897 12.3476V6.65234H74.8136L77.6639 11.0817H77.6969L77.6639 9.98684V6.65234H78.418V12.3476H77.6309L74.6462 7.69972H74.6132L74.6462 8.79934V12.3476H73.897Z" fill="white" stroke="white" stroke-width="0.16" stroke-miterlimit="10"/>
<path d="M66.6208 20.6653C64.3243 20.6653 62.4481 22.3634 62.4481 24.7063C62.4481 27.0303 64.3243 28.7462 66.6208 28.7462C68.9223 28.7462 70.7984 27.0303 70.7984 24.7063C70.7984 22.3634 68.9223 20.6653 66.6208 20.6653ZM66.6208 27.155C65.3607 27.155 64.2766 26.1444 64.2766 24.7063C64.2766 23.2493 65.3607 22.2565 66.6208 22.2565C67.8809 22.2565 68.9699 23.2493 68.9699 24.7063C68.9699 26.1444 67.8809 27.155 66.6208 27.155ZM57.5165 20.6653C55.215 20.6653 53.3438 22.3634 53.3438 24.7063C53.3438 27.0303 55.215 28.7462 57.5165 28.7462C59.8167 28.7462 61.6891 27.0303 61.6891 24.7063C61.6891 22.3634 59.8167 20.6653 57.5165 20.6653ZM57.5165 27.155C56.2551 27.155 55.1674 26.1444 55.1674 24.7063C55.1674 23.2493 56.2551 22.2565 57.5165 22.2565C58.7766 22.2565 59.8607 23.2493 59.8607 24.7063C59.8607 26.1444 58.7766 27.155 57.5165 27.155ZM46.6827 21.9038V23.621H50.903C50.7796 24.5805 50.4496 25.2858 49.9436 25.7775C49.3276 26.3712 48.3681 27.0303 46.6827 27.0303C44.0855 27.0303 42.0517 24.9937 42.0517 22.4703C42.0517 19.9468 44.0855 17.9103 46.6827 17.9103C48.087 17.9103 49.1088 18.4435 49.8629 19.1346L51.1084 17.9245C50.0536 16.946 48.6505 16.1943 46.6827 16.1943C43.1211 16.1943 40.1279 19.0099 40.1279 22.4703C40.1279 25.9307 43.1211 28.7462 46.6827 28.7462C48.6077 28.7462 50.0536 28.1335 51.1903 26.984C52.355 25.8523 52.718 24.261 52.718 22.9762C52.718 22.5772 52.6838 22.2102 52.6227 21.9038H46.6827ZM90.9834 23.235C90.6399 22.3313 89.5802 20.6653 87.4218 20.6653C85.2829 20.6653 83.5021 22.3028 83.5021 24.7063C83.5021 26.9697 85.2646 28.7462 87.6271 28.7462C89.5375 28.7462 90.6399 27.6145 91.0934 26.9555L89.6756 26.0375C89.2026 26.7097 88.5585 27.155 87.6271 27.155C86.7019 27.155 86.0382 26.7429 85.6129 25.9307L91.1752 23.6946L90.9834 23.235ZM85.3123 24.5805C85.2646 23.0225 86.5577 22.2245 87.4841 22.2245C88.2101 22.2245 88.8261 22.5772 89.0315 23.0818L85.3123 24.5805ZM80.7912 28.5004H82.6197V16.6254H80.7912V28.5004ZM77.7968 21.5654H77.7357C77.325 21.0928 76.5416 20.6653 75.5491 20.6653C73.4665 20.6653 71.5623 22.4418 71.5623 24.7194C71.5623 26.984 73.4665 28.7462 75.5491 28.7462C76.5416 28.7462 77.325 28.3151 77.7357 27.8283H77.7968V28.4078C77.7968 29.9527 76.9474 30.7828 75.5772 30.7828C74.4601 30.7828 73.7671 29.999 73.4811 29.34L71.891 29.9848C72.3494 31.0559 73.563 32.374 75.5772 32.374C77.721 32.374 79.5299 31.1485 79.5299 28.1667V20.9111H77.7968V21.5654ZM75.7056 27.155C74.4455 27.155 73.3907 26.1302 73.3907 24.7194C73.3907 23.2956 74.4455 22.2565 75.7056 22.2565C76.9474 22.2565 77.9264 23.2956 77.9264 24.7194C77.9264 26.1302 76.9474 27.155 75.7056 27.155ZM99.5438 16.6254H95.1707V28.5004H96.9942V24.001H99.5438C101.569 24.001 103.555 22.5772 103.555 20.3126C103.555 18.0492 101.564 16.6254 99.5438 16.6254ZM99.5915 22.3492H96.9942V18.2772H99.5915C100.953 18.2772 101.73 19.3757 101.73 20.3126C101.73 21.2317 100.953 22.3492 99.5915 22.3492ZM110.864 20.6427C109.546 20.6427 108.176 21.208 107.613 22.4608L109.231 23.1198C109.579 22.4608 110.22 22.247 110.897 22.247C111.843 22.247 112.802 22.7992 112.817 23.7742V23.8988C112.487 23.7136 111.781 23.4393 110.912 23.4393C109.169 23.4393 107.393 24.3715 107.393 26.1112C107.393 27.7024 108.82 28.7272 110.425 28.7272C111.652 28.7272 112.329 28.1893 112.755 27.5635H112.817V28.4814H114.578V23.9262C114.578 21.8207 112.96 20.6427 110.864 20.6427ZM110.644 27.1502C110.048 27.1502 109.216 26.8628 109.216 26.1444C109.216 25.2253 110.253 24.8726 111.15 24.8726C111.953 24.8726 112.329 25.0448 112.817 25.2716C112.674 26.3712 111.7 27.1502 110.644 27.1502ZM120.995 20.9028L118.899 26.0506H118.837L116.67 20.9028H114.703L117.959 28.0966L116.101 32.0997H118.007L123.024 20.9028H120.995ZM104.557 28.5004H106.386V16.6254H104.557V28.5004Z" fill="white"/>
<defs>
<linearGradient id="paint0_linear_770_875" x1="21.3151" y1="29.7259" x2="5.37844" y2="13.3233" gradientUnits="userSpaceOnUse">
<stop stop-color="#00A0FF"/>
<stop offset="0.0066" stop-color="#00A1FF"/>
<stop offset="0.2601" stop-color="#00BEFF"/>
<stop offset="0.5122" stop-color="#00D2FF"/>
<stop offset="0.7604" stop-color="#00DFFF"/>
<stop offset="1" stop-color="#00E3FF"/>
</linearGradient>
<linearGradient id="paint1_linear_770_875" x1="33.0825" y1="18.9985" x2="9.42334" y2="18.9985" gradientUnits="userSpaceOnUse">
<stop stop-color="#FFE000"/>
<stop offset="0.4087" stop-color="#FFBD00"/>
<stop offset="0.7754" stop-color="#FFA500"/>
<stop offset="1" stop-color="#FF9C00"/>
</linearGradient>
<linearGradient id="paint2_linear_770_875" x1="24.2753" y1="16.819" x2="2.66389" y2="-5.42433" gradientUnits="userSpaceOnUse">
<stop stop-color="#FF3A44"/>
<stop offset="1" stop-color="#C31162"/>
</linearGradient>
<linearGradient id="paint3_linear_770_875" x1="7.13515" y1="37.8326" x2="16.7856" y2="27.9001" gradientUnits="userSpaceOnUse">
<stop stop-color="#32A071"/>
<stop offset="0.0685" stop-color="#2DA771"/>
<stop offset="0.4762" stop-color="#15CF74"/>
<stop offset="0.8009" stop-color="#06E775"/>
<stop offset="1" stop-color="#00F076"/>
</linearGradient>
</defs>
</svg>
